# xmcd CD database file
#
# Track frame offsets:
#	180
#	13531
#	27450
#	38631
#	48909
#	60625
#	72581
#	85029
#	96643
#	112143
#
# Disc length: 1683 seconds
#
# Revision: 0
# Processed by: cddbd v1.5.1PL0 Copyright (c) Steve Scherf et al.
# Submitted via: CDex 1.60beta1
#
DISCID=8606910a
DTITLE=Conway Twitty - Greatest Number 1 Hits
DYEAR=0
DGENRE=Country
TTITLE0=After All The Good Is Gone
TTITLE1=Fifteen Years Ago
TTITLE2=Hello Darlin'
TTITLE3=I Can't Believe She Gives It All To Me
TTITLE4=Lying Here With Linda On My Mind
TTITLE5=She Needs Someone To Hold Her (When She Cries)
TTITLE6=This Time I've Hurt Her More Than She Loves Me
TTITLE7=To See My Angel
TTITLE8=Touch The Hand
TTITLE9=You've Never Been This Far Before
EXTD=YEAR: 0
EXTT0=
EXTT1=
EXTT2=
EXTT3=
EXTT4=
EXTT5=
EXTT6=
EXTT7=
EXTT8=
EXTT9=
PLAYORDER=
